<svg version="1.2" xmlns="http://www.w3.org/2000/svg" viewBox="0 0 163 147" width="163" height="147">
	<style>
		.s0 { fill: #ffffff } 
	</style>
	<path class="s0" d="m34.21 141.2l2.26 1.12c9.45 4.66 20.44 0.18 24.36-10.43 4.23-11.46 8.83-25.6 9.61-34.63 1.48-17.32-1.02-22.79-13.21-33.7-7.6-6.8-23.48-13.16-34.38-16.99-6.69-2.35-13.77 0.98-17.22 7.75-6.09 11.95 2.11 26.82 14.42 26.15l39.36-2.14q0.36-0.02 0.71 0.07c2.41 0.57 3.04 4.1 1 5.62l-29.82 22.23c-11.7 8.71-10.05 28.56 2.91 34.95z"/>
	<path class="s0" d="m128.99 8.66l-2.27-1.12c-9.45-4.66-20.44-0.18-24.36 10.43-4.23 11.46-8.83 25.59-9.61 34.63-1.48 17.32 1.02 22.79 13.21 33.7 7.6 6.79 23.48 13.15 34.38 16.98 6.69 2.35 13.77-0.97 17.22-7.74 6.09-11.95-2.11-26.82-14.42-26.16l-39.36 2.15q-0.36 0.01-0.71-0.07c-2.41-0.57-3.04-4.11-1-5.62l29.82-22.23c11.7-8.72 10.05-28.56-2.9-34.95z"/>
	<path class="s0" d="m72.33 56.66l-19.08-32.58c-4.95-8.45-16.13-7.79-19.8 1.16-2.31 5.64-0.54 12.43 4.22 15.93 12.12 8.92 33.73 24.43 37.36 24.35 5.1-0.12 5.7-2.36 6.72-3.29 0.69-0.65 7.68-25.96 11.97-41.67 1.83-6.71-1.71-13.95-7.83-16.03-7.96-2.7-15.5 4.66-14.13 13.79l5.43 36.35c0.13 0.82-0.06 1.65-0.51 2.29-1.12 1.59-3.34 1.44-4.35-0.3z"/>
	<path class="s0" d="m79.53 76.09l2.22 49.23c0.59 13.14 14.13 22.06 26.05 17.17 10.91-4.48 14.4-18.21 7.12-28.04l-29.76-40.2q-0.46-0.62-1.14-0.97c-2.14-1.11-4.59 0.43-4.49 2.81z"/>
</svg>